<svg width="164" height="52" viewBox="0 0 164 52" fill="none" xmlns="http://www.w3.org/2000/svg">
<path d="M43.7089 5.9072C36.25 6.67035 27.2277 13.7647 21.1977 28.2237H0.562866C10.8357 5.86178 30.2652 0.877441 48.6216 0.877441H88.5516L82.2088 14.5279C77.5186 11.3844 67.2458 6.67035 60.8148 5.95149L40.0015 50.9434H22.8504L43.7089 5.9072ZM52.7312 45.2867C52.7312 43.1767 53.357 41.3358 54.7408 38.3264L63.8083 18.7933H80.2443L72.0704 36.4855C71.5349 37.653 71.3113 38.5512 71.3113 39.135C71.3113 39.8084 71.6242 40.4376 72.7402 40.4376C75.4197 40.4376 80.9142 33.5669 83.37 30.2894C88.1935 23.4199 96.189 18.255 102.978 18.255C106.194 18.255 109.276 19.2431 111.42 21.3088L112.581 18.7945H128.616L120.8 36.0824C120.13 37.5189 119.996 38.3275 119.996 38.8658C119.996 39.8981 120.622 40.4818 121.872 40.4818C125.088 40.4818 130.558 33.7111 133.217 28.1783C136.492 21.3656 146.214 0.877441 146.214 0.877441H162.652L147.108 34.0609C145.992 36.4412 145.679 37.7881 145.679 38.641C145.679 39.7187 146.349 40.4818 147.823 40.4818C150.637 40.4818 154.791 35.4078 158.007 29.7954H163.456C155.327 45.3322 146.26 51.6634 138.265 51.6634C132.057 51.6634 128.708 48.6551 128.708 42.3681C128.708 42.0536 128.708 41.739 128.753 41.3801C123.303 47.7568 116.782 51.6634 111.289 51.6634C105.259 51.6634 103.025 48.6994 103.025 44.7927C103.025 44.1193 103.071 43.4004 103.16 42.8167C98.917 47.9362 93.3333 51.6622 87.7948 51.6622C82.6583 51.6622 79.0853 48.6539 79.0853 42.3227C79.0853 41.8741 79.0854 41.4699 79.1305 40.9758C72.9221 47.8011 66.446 51.6622 60.5945 51.6622C55.9495 51.6622 52.7335 49.3717 52.7335 45.2856L52.7312 45.2867ZM109.455 25.2597C108.696 24.3614 107.49 23.7334 105.882 23.7334C101.416 23.7334 95.7439 31.232 95.7439 36.9795C95.7439 39.3144 96.9052 40.4376 98.3793 40.4376C101.55 40.4376 106.106 34.7355 109.456 25.2608L109.455 25.2597Z" fill="#fff"/>
</svg>
