<svg width="416" height="130" viewBox="0 0 416 130" fill="none" xmlns="http://www.w3.org/2000/svg">
<path d="M110.006 13.493C90.9889 15.4362 67.9853 33.5007 52.6112 70.3181H0C26.1918 13.3773 75.73 0.685547 122.532 0.685547H224.339L208.167 35.444C196.208 27.4397 170.017 15.4362 153.62 13.6057L100.554 128.17H56.8248L110.006 13.493ZM133.01 113.766C133.01 108.393 134.605 103.706 138.134 96.0428L161.252 46.3053H203.158L182.318 91.3553C180.952 94.328 180.382 96.6154 180.382 98.1017C180.382 99.8165 181.18 101.418 184.026 101.418C190.857 101.418 204.866 83.9236 211.127 75.5781C223.426 58.0861 243.811 44.9346 261.121 44.9346C269.32 44.9346 277.177 47.4504 282.644 52.7104L285.605 46.3082H326.488L306.56 90.3288C304.852 93.9868 304.51 96.0457 304.51 97.4164C304.51 100.045 306.105 101.531 309.294 101.531C317.493 101.531 331.439 84.2909 338.219 70.2024C346.568 52.855 371.357 0.685547 371.357 0.685547H413.266L373.636 85.1815C370.79 91.2425 369.992 94.6721 369.992 96.8438C369.992 99.588 371.7 101.531 375.459 101.531C382.633 101.531 393.223 88.6111 401.423 74.3202H415.317C394.591 113.882 371.473 130.003 351.09 130.003C335.261 130.003 326.721 122.343 326.721 106.334C326.721 105.533 326.721 104.732 326.836 103.819C312.943 120.056 296.316 130.003 282.31 130.003C266.936 130.003 261.242 122.456 261.242 112.508C261.242 110.793 261.357 108.963 261.584 107.477C250.767 120.513 236.53 130 222.409 130C209.313 130 200.203 122.34 200.203 106.219C200.203 105.077 200.203 104.047 200.318 102.789C184.489 120.168 167.977 130 153.058 130C141.215 130 133.016 124.168 133.016 113.763L133.01 113.766ZM277.635 62.7707C275.7 60.4834 272.624 58.8842 268.525 58.8842C257.137 58.8842 242.676 77.9782 242.676 92.6132C242.676 98.5586 245.637 101.418 249.396 101.418C257.48 101.418 269.096 86.8992 277.638 62.7736L277.635 62.7707Z" fill="#0655AF"/>
</svg>
